<svg xmlns="http://www.w3.org/2000/svg" viewBox="0 0 600 120" fill="#1E3A8A">
  <title>Thoth</title>
  <!-- Small ibis silhouette to the left of the wordmark -->
  <g transform="translate(10, 16) scale(0.34)">
    <path d="M58 36
             C 92 36, 118 56, 130 88
             C 134 100, 137 112, 140 124
             C 145 146, 154 166, 168 184
             C 182 202, 200 215, 222 222
             C 227 224, 229 226, 228 230
             C 227 233, 224 234, 219 234
             C 207 234, 195 233, 184 231
             L 184 246
             C 184 250, 182 252, 178 252
             C 175 252, 173 250, 172 247
             L 165 230
             C 150 227, 136 222, 124 214
             C 100 199, 82 178, 71 152
             C 63 132, 60 110, 62 88
             C 54 91, 46 93, 38 94
             C 33 95, 30 93, 30 90
             C 30 87, 32 85, 36 84
             C 46 81, 56 77, 64 72
             C 60 66, 56 60, 54 53
             C 53 48, 55 45, 59 44
             C 62 43, 65 45, 67 49
             C 70 55, 74 60, 78 64
             C 73 56, 70 47, 68 38
             C 67 33, 69 31, 73 31
             C 67 33, 62 34, 58 36 Z"/>
    <circle cx="78" cy="59" r="4" fill="#ffffff"/>
  </g>
  <text x="115" y="82"
        font-family="system-ui, -apple-system, 'Segoe UI', sans-serif"
        font-size="78"
        font-weight="600"
        letter-spacing="-1"
        fill="#1E3A8A">Thoth</text>
</svg>
