<svg xmlns="http://www.w3.org/2000/svg" viewBox="0 0 24 24" fill="#1E3A8A">
  <title>Thoth</title>
  <!-- Ibis: round head, slim neck, signature long downward-curved beak -->
  <path d="M16.8 5.4
           C 18.2 5.4 19.3 6.5 19.3 7.9
           C 19.3 8.9 18.7 9.8 17.8 10.2
           C 18.4 11.0 18.6 12.0 18.3 12.9
           L 22 13.6
           C 21.0 14.6 18.6 14.7 16.5 14.0
           C 15.0 14.0 13.6 13.3 12.7 12.2
           L 12.2 14.0
           C 12.0 14.7 11.8 15.4 11.4 16.0
           C 10.0 18.4 7.6 20.0 5.0 20.4
           L 5.0 19.2
           C 7.0 18.6 8.8 17.2 9.8 15.4
           C 10.5 14.2 10.8 12.8 10.7 11.4
           C 10.5 9.6 11.0 7.8 12.2 6.5
           C 13.4 5.2 15.0 4.6 16.6 4.8
           L 16.8 5.4 Z"/>
  <!-- Curved beak: starts from head, sweeps down -->
  <path d="M19.0 8.4
           C 20.4 9.6 21.6 11.2 22.4 13.0
           C 22.6 13.4 22.4 13.7 22.0 13.7
           C 21.6 13.7 21.3 13.5 21.1 13.1
           C 20.4 11.6 19.3 10.3 18.0 9.5
           Z"/>
  <!-- Eye cutout -->
  <circle cx="17.2" cy="7.6" r="0.7" fill="#ffffff"/>
</svg>
